# xmcd
# Copyright (C) 1995-1998 Ti Kan
#
# Track frame offsets:
#       150
#       16790
#       38645
#       49970
#       68269
#       84347
#       99755
#       115010
#       120193
#       135534
#       157956
#       176298
#       192730
#       211243
#       226580
#       241831
#
# Disc length: 3464 seconds
#
# Revision: 0
# Processed by: cddbd v1.5.2PL0 Copyright (c) Steve Scherf et al.
# Submitted via: CD-Import v1.0
#
DISCID=af0d8610
DTITLE=Grauzone - Die Sunrise Tapes
DYEAR=1998
DGENRE=
TTITLE0=Film 2
TTITLE1=Eisbär
TTITLE2=Hinter Den Bergen
TTITLE3=Maikäfer Flieg
TTITLE4=Marmelade Und Himbeereis
TTITLE5=Wütendes Glas
TTITLE6=Kälte Kriecht
TTITLE7=Kunstgewerbe
TTITLE8=Der Weg Zu Zweit
TTITLE9=In Der Nacht
TTITLE10=Träume Mit Mir
TTITLE11=Ich Und Du
TTITLE12=Moskau
TTITLE13=Ich Lieb' Sie
TTITLE14=Schlachtet!
TTITLE15=Raum
EXTD=
EXTT0=
EXTT1=
EXTT2=
EXTT3=
EXTT4=
EXTT5=
EXTT6=
EXTT7=
EXTT8=
EXTT9=
EXTT10=
EXTT11=
EXTT12=
EXTT13=
EXTT14=
EXTT15=
PLAYORDER=
